REM DIRINDEX 1\6,1\2\7,1\2\8,1\2\9,1\3\10,1\3\11,1\4\12,1\4\13,1\4\14,1\5\15,1\5\16,1\5\17
REM DIRNAME folder01,folder02,folder03,folder04,folder05,folder06,folder07,folder08,folder09,folder10,folder11,folder12,folder13,folder14,folder15,folder16,folder17
TITLE ""
FILE "3Q_t2_0001-0015.mp3" MP3
  TRACK 01 AUDIO
    TITLE "6:cjc041_3413"
    INDEX 01 00:00:00
  TRACK 02 AUDIO
    TITLE "0:"
    INDEX 01 00:07:07
  TRACK 03 AUDIO
    TITLE "7:cjc041_3414"
    INDEX 01 00:08:15
  TRACK 04 AUDIO
    TITLE "0:"
    INDEX 01 00:09:16
  TRACK 05 AUDIO
    TITLE "8:cjc041_3415"
    INDEX 01 00:09:73
  TRACK 06 AUDIO
    TITLE "0:"
    INDEX 01 00:15:01
  TRACK 07 AUDIO
    TITLE "9:cjc041_3416"
    INDEX 01 00:15:54
  TRACK 08 AUDIO
    TITLE "0:"
    INDEX 01 00:16:55
  TRACK 09 AUDIO
    TITLE "7:cjc041_3417"
    INDEX 01 00:18:35
  TRACK 10 AUDIO
    TITLE "0:"
    INDEX 01 00:19:34
  TRACK 11 AUDIO
    TITLE "8:cjc041_3418"
    INDEX 01 00:20:14
  TRACK 12 AUDIO
    TITLE "0:"
    INDEX 01 00:25:48
  TRACK 13 AUDIO
    TITLE "9:cjc041_3419"
    INDEX 01 00:26:30
  TRACK 14 AUDIO
    TITLE "0:"
    INDEX 01 00:27:28
  TRACK 15 AUDIO
    TITLE "7:cjc041_3420"
    INDEX 01 00:29:09
  TRACK 16 AUDIO
    TITLE "0:"
    INDEX 01 00:30:16
  TRACK 17 AUDIO
    TITLE "8:cjc041_3421"
    INDEX 01 00:30:71
  TRACK 18 AUDIO
    TITLE "0:"
    INDEX 01 00:36:56
  TRACK 19 AUDIO
    TITLE "9:cjc041_3422"
    INDEX 01 00:37:34
  TRACK 20 AUDIO
    TITLE "0:"
    INDEX 01 00:38:39
  TRACK 21 AUDIO
    TITLE "7:cjc041_3423"
    INDEX 01 00:40:24
  TRACK 22 AUDIO
    TITLE "0:"
    INDEX 01 00:41:24
  TRACK 23 AUDIO
    TITLE "8:cjc041_3424"
    INDEX 01 00:42:02
  TRACK 24 AUDIO
    TITLE "0:"
    INDEX 01 00:45:53
  TRACK 25 AUDIO
    TITLE "9:cjc041_3425"
    INDEX 01 00:46:31
  TRACK 26 AUDIO
    TITLE "0:"
    INDEX 01 00:47:34
  TRACK 27 AUDIO
    TITLE "7:cjc041_3426"
    INDEX 01 00:49:10
  TRACK 28 AUDIO
    TITLE "0:"
    INDEX 01 00:50:11
  TRACK 29 AUDIO
    TITLE "8:cjc041_3427"
    INDEX 01 00:50:68
  TRACK 30 AUDIO
    TITLE "0:"
    INDEX 01 00:53:09
  TRACK 31 AUDIO
    TITLE "9:cjc041_3428"
    INDEX 01 00:53:64
  TRACK 32 AUDIO
    TITLE "0:"
    INDEX 01 00:54:66
  TRACK 33 AUDIO
    TITLE "7:cjc041_3429"
    INDEX 01 00:56:45
  TRACK 34 AUDIO
    TITLE "0:"
    INDEX 01 00:57:50
  TRACK 35 AUDIO
    TITLE "8:cjc041_3430"
    INDEX 01 00:58:34
  TRACK 36 AUDIO
    TITLE "0:"
    INDEX 01 01:01:72
  TRACK 37 AUDIO
    TITLE "9:cjc041_3431"
    INDEX 01 01:02:48
  TRACK 38 AUDIO
    TITLE "0:"
    INDEX 01 01:03:49
  TRACK 39 AUDIO
    TITLE "7:cjc041_3432"
    INDEX 01 01:05:36
  TRACK 40 AUDIO
    TITLE "0:"
    INDEX 01 01:06:45
  TRACK 41 AUDIO
    TITLE "8:cjc041_3433"
    INDEX 01 01:07:27
  TRACK 42 AUDIO
    TITLE "0:"
    INDEX 01 01:08:31
  TRACK 43 AUDIO
    TITLE "9:cjc041_3434"
    INDEX 01 01:09:10
  TRACK 44 AUDIO
    TITLE "0:"
    INDEX 01 01:10:22
  TRACK 45 AUDIO
    TITLE "7:cjc041_3435"
    INDEX 01 01:12:01
  TRACK 46 AUDIO
    TITLE "0:"
    INDEX 01 01:13:12
  TRACK 47 AUDIO
    TITLE "8:cjc041_3436"
    INDEX 01 01:13:67
  TRACK 48 AUDIO
    TITLE "0:"
    INDEX 01 01:15:09
  TRACK 49 AUDIO
    TITLE "9:cjc041_3437"
    INDEX 01 01:15:64
  TRACK 50 AUDIO
    TITLE "0:"
    INDEX 01 01:17:00
  TRACK 51 AUDIO
    TITLE "7:cjc041_3438"
    INDEX 01 01:18:54
  TRACK 52 AUDIO
    TITLE "0:"
    INDEX 01 01:19:60
  TRACK 53 AUDIO
    TITLE "8:cjc041_3439"
    INDEX 01 01:20:44
  TRACK 54 AUDIO
    TITLE "0:"
    INDEX 01 01:26:13
  TRACK 55 AUDIO
    TITLE "9:cjc041_3440"
    INDEX 01 01:26:66
  TRACK 56 AUDIO
    TITLE "0:"
    INDEX 01 01:27:71
  TRACK 57 AUDIO
    TITLE "7:cjc041_3441"
    INDEX 01 01:29:54
  TRACK 58 AUDIO
    TITLE "0:"
    INDEX 01 01:30:64
  TRACK 59 AUDIO
    TITLE "8:cjc041_3442"
    INDEX 01 01:31:41
  TRACK 60 AUDIO
    TITLE "0:"
    INDEX 01 01:33:13
  TRACK 61 AUDIO
    TITLE "9:cjc041_3443"
    INDEX 01 01:33:66
  TRACK 62 AUDIO
    TITLE "0:"
    INDEX 01 01:34:73
  TRACK 63 AUDIO
    TITLE "7:cjc041_3444"
    INDEX 01 01:36:62
  TRACK 64 AUDIO
    TITLE "0:"
    INDEX 01 01:38:08
  TRACK 65 AUDIO
    TITLE "8:cjc041_3445"
    INDEX 01 01:38:63
  TRACK 66 AUDIO
    TITLE "0:"
    INDEX 01 01:40:25
  TRACK 67 AUDIO
    TITLE "9:cjc041_3446"
    INDEX 01 01:41:01
  TRACK 68 AUDIO
    TITLE "0:"
    INDEX 01 01:42:22
  TRACK 69 AUDIO
    TITLE "7:cjc041_3447"
    INDEX 01 01:44:03
  TRACK 70 AUDIO
    TITLE "0:"
    INDEX 01 01:45:16
  TRACK 71 AUDIO
    TITLE "8:cjc041_3448"
    INDEX 01 01:45:73
  TRACK 72 AUDIO
    TITLE "0:"
    INDEX 01 01:48:61
  TRACK 73 AUDIO
    TITLE "9:cjc041_3449"
    INDEX 01 01:49:45
  TRACK 74 AUDIO
    TITLE "0:"
    INDEX 01 01:50:60
  TRACK 75 AUDIO
    TITLE "7:cjc041_3450"
    INDEX 01 01:52:36
  TRACK 76 AUDIO
    TITLE "0:"
    INDEX 01 01:53:49
  TRACK 77 AUDIO
    TITLE "8:cjc041_3451"
    INDEX 01 01:54:35
  TRACK 78 AUDIO
    TITLE "0:"
    INDEX 01 01:56:61
  TRACK 79 AUDIO
    TITLE "9:cjc041_3452"
    INDEX 01 01:57:41
  TRACK 80 AUDIO
    TITLE "0:"
    INDEX 01 01:58:54
  TRACK 81 AUDIO
    TITLE "7:cjc041_3453"
    INDEX 01 02:00:35
  TRACK 82 AUDIO
    TITLE "0:"
    INDEX 01 02:01:54
  TRACK 83 AUDIO
    TITLE "8:cjc041_3454"
    INDEX 01 02:02:28
  TRACK 84 AUDIO
    TITLE "0:"
    INDEX 01 02:04:57
  TRACK 85 AUDIO
    TITLE "9:cjc041_3455"
    INDEX 01 02:05:38
  TRACK 86 AUDIO
    TITLE "0:"
    INDEX 01 02:06:55
  TRACK 87 AUDIO
    TITLE "7:cjc041_3456"
    INDEX 01 02:08:37
  TRACK 88 AUDIO
    TITLE "0:"
    INDEX 01 02:09:48
  TRACK 89 AUDIO
    TITLE "8:cjc041_3457"
    INDEX 01 02:10:32
  TRACK 90 AUDIO
    TITLE "0:"
    INDEX 01 02:13:30
  TRACK 91 AUDIO
    TITLE "9:cjc041_3458"
    INDEX 01 02:14:02
  TRACK 92 AUDIO
    TITLE "0:"
    INDEX 01 02:15:21
